<svg width="512" height="512" viewBox="0 0 512 512" fill="none" xmlns="http://www.w3.org/2000/svg">
  <rect width="512" height="512" rx="108" fill="#F6F5F1"/>
  <rect x="56" y="72" width="400" height="368" rx="36" fill="#FBFAF7" stroke="#D7D0C6" stroke-width="8"/>
  <rect x="88" y="104" width="96" height="304" rx="24" fill="#F0ECE5"/>
  <rect x="200" y="104" width="224" height="304" rx="24" fill="#FFFFFF"/>
  <rect x="224" y="144" width="176" height="18" rx="9" fill="#1E2327"/>
  <rect x="224" y="184" width="132" height="12" rx="6" fill="#5C6770"/>
  <rect x="112" y="138" width="48" height="48" rx="16" fill="#206095"/>
  <rect x="112" y="206" width="48" height="48" rx="16" fill="#E69F00"/>
  <rect x="112" y="274" width="48" height="48" rx="16" fill="#118C7E"/>
  <rect x="112" y="342" width="48" height="48" rx="16" fill="#A11D33"/>
  <rect x="224" y="230" width="176" height="32" rx="16" fill="url(#paint0_linear_519_2)"/>
  <rect x="224" y="284" width="176" height="96" rx="18" fill="#F5F2ED" stroke="#D7D0C6" stroke-width="4"/>
  <path d="M246 344C270.512 312.667 295.95 297 322.312 297C344.481 297 364.71 308.852 383 332.556" stroke="#206095" stroke-width="10" stroke-linecap="round"/>
  <path d="M246 344C270.512 356 295.95 362 322.312 362C344.481 362 364.71 354.741 383 340.222" stroke="#A11D33" stroke-width="10" stroke-linecap="round"/>
  <defs>
    <linearGradient id="paint0_linear_519_2" x1="224" y1="246" x2="400" y2="246" gradientUnits="userSpaceOnUse">
      <stop stop-color="#FCFDBF"/>
      <stop offset="0.25" stop-color="#FE9F6D"/>
      <stop offset="0.5" stop-color="#CD4071"/>
      <stop offset="0.75" stop-color="#6F1D80"/>
      <stop offset="1" stop-color="#000004"/>
    </linearGradient>
  </defs>
</svg>
